<?xml version="1.0" standalone="no"?><!DOCTYPE svg PUBLIC "-//W3C//DTD SVG 1.1//EN" "http://www.w3.org/Graphics/SVG/1.1/DTD/svg11.dtd"><svg t="1690862223886" class="icon" viewBox="0 0 1024 1024" version="1.1" xmlns="http://www.w3.org/2000/svg" p-id="14793" xmlns:xlink="http://www.w3.org/1999/xlink" width="24" height="24"><path d="M590.293333 874.666667c-7.466667 0-14.506667-3.84-18.56-10.453334L512 762.666667l-59.733333 101.546666c-5.973333 10.026667-18.986667 13.44-29.226667 7.68l-184.746667-104.533333a21.034667 21.034667 0 0 1-10.026666-12.586667 20.416 20.416 0 0 1 2.133333-15.786666l59.733333-101.546667H170.666667c-11.733333 0-21.333333-9.386667-21.333334-20.906667v-209.066666c0-11.52 9.6-20.906667 21.333334-20.906667h119.68l-59.733334-101.546667a20.629333 20.629333 0 0 1 7.893334-28.586666l184.746666-104.533334a21.546667 21.546667 0 0 1 29.226667 7.68l59.733333 101.546667 59.733334-101.546667a21.610667 21.610667 0 0 1 29.226666-7.68l184.746667 104.533334c4.906667 2.773333 8.533333 7.253333 10.026667 12.586666s0.64 11.093333-2.133334 15.786667l-59.733333 101.546667H853.333333c11.733333 0 21.333333 9.386667 21.333334 20.906666v208.853334c0 11.52-9.6 20.906667-21.333334 20.906666h-119.68l59.733334 101.546667c2.773333 4.693333 3.626667 10.453333 2.133333 15.786667s-5.12 9.813333-10.026667 12.586666l-184.746666 104.533334c-3.2 2.346667-6.826667 3.2-10.453334 3.2z m-312.106666-133.12l147.84 83.626666 55.893333-94.933333c6.186667-10.453333 17.706667-17.066667 30.08-17.066667s23.893333 6.613333 30.08 17.066667l55.893333 94.933333 147.84-83.626666-55.893333-94.933334c-6.186667-10.666667-6.186667-23.466667 0-34.133333 6.186667-10.453333 17.706667-17.066667 30.08-17.066667H832v-167.253333h-112c-12.373333 0-23.893333-6.613333-30.08-17.066667-6.186667-10.666667-6.186667-23.466667 0-34.133333l55.893333-94.933333-147.84-83.626667-55.893333 94.933333c-6.186667 10.453333-17.706667 17.066667-30.08 17.066667s-23.893333-6.613333-30.08-17.066667L426.026667 198.4l-147.84 83.626667 55.893333 94.933333c6.186667 10.453333 6.186667 23.68 0 34.133333-6.4 10.666667-17.493333 17.066667-30.08 17.066667H192v167.253333h112c12.586667 0 23.893333 6.4 30.08 17.066667s6.4 23.466667 0 34.133333l-55.893333 94.933334z" fill="#ffffff" p-id="14794"></path><path d="M512 640c-70.613333 0-128-57.386667-128-128s57.386667-128 128-128 128 57.386667 128 128-57.386667 128-128 128z m0-213.333333c-47.146667 0-85.333333 38.186667-85.333333 85.333333s38.186667 85.333333 85.333333 85.333333 85.333333-38.186667 85.333333-85.333333-38.186667-85.333333-85.333333-85.333333z" fill="#ffffff" p-id="14795"></path></svg>