<?xml version="1.0" standalone="no"?><!DOCTYPE svg PUBLIC "-//W3C//DTD SVG 1.1//EN" "http://www.w3.org/Graphics/SVG/1.1/DTD/svg11.dtd"><svg t="1690791612984" class="icon" viewBox="0 0 1024 1024" version="1.1" xmlns="http://www.w3.org/2000/svg" p-id="14824" width="24" height="24" xmlns:xlink="http://www.w3.org/1999/xlink"><path d="M512 96C282.624 96 96 282.624 96 512s186.624 416 416 416 416-186.624 416-416S741.376 96 512 96z m0 768C317.92 864 160 706.08 160 512S317.92 160 512 160s352 157.92 352 352-157.92 352-352 352z" p-id="14825"></path><path d="M466.816 324.96a32 32 0 0 0-50.816 25.888v339.776a32 32 0 0 0 50.816 25.856l233.6-169.888a32 32 0 0 0 0-51.776l-233.6-169.856z" p-id="14826"></path></svg>