<?xml version="1.0" standalone="no"?><!DOCTYPE svg PUBLIC "-//W3C//DTD SVG 1.1//EN" "http://www.w3.org/Graphics/SVG/1.1/DTD/svg11.dtd"><svg t="1693535074957" class="icon" viewBox="0 0 1024 1024" version="1.1" xmlns="http://www.w3.org/2000/svg" p-id="28612" xmlns:xlink="http://www.w3.org/1999/xlink" width="24" height="24"><path d="M466.935596 821.730263h-26.798545C196.748283 534.936566 354.869657 343.209374 596.359111 205.451636l-71.681293-122.696404c-5.070869-8.647111-4.94804-19.157333 0.908929-26.95499 5.818182-7.717495 15.970263-11.035152 25.500445-8.318707l368.389172 59.182546c13.010747 3.712 21.030788 17.409293 17.702788 30.429091L804.414707 480.815838c-1.594182 6.509899-5.68501 11.737212-11.055838 14.757495-2.721616 1.590303-5.832404 2.570343-9.005253 2.954344-9.797818 1.146828-19.081051-4.080485-24.106667-12.706909l-70.393535-120.429899C452.783192 500.562747 370.243879 629.553131 466.904566 821.725091l0.03103 0.005172z m-0.03103-0.005172" p-id="28613"></path><path d="M860.76703 977.444202H163.207111C77.595798 977.444202 8.196525 908.030707 8.196525 822.434909V202.388687c0-85.61002 69.399273-155.009293 155.010586-155.009293h155.009293v72.661333H163.207111c-42.84897 0-77.51499 34.707394-77.51499 77.51499v629.743192c0 42.828283 34.671192 77.508525 77.51499 77.508525h697.565091c42.767515 0 77.509818-34.667313 77.509818-77.508525V434.914263h77.509818V822.445253c0 85.606141-69.418667 155.009293-155.029979 155.009292l0.005171-0.010343z m0 0" p-id="28614"></path></svg>