<?xml version="1.0" standalone="no"?><!DOCTYPE svg PUBLIC "-//W3C//DTD SVG 1.1//EN" "http://www.w3.org/Graphics/SVG/1.1/DTD/svg11.dtd"><svg t="1692002200967" class="icon" viewBox="0 0 1024 1024" version="1.1" xmlns="http://www.w3.org/2000/svg" p-id="28274" xmlns:xlink="http://www.w3.org/1999/xlink" width="24" height="24"><path d="M512 70.86C268.76 70.86 70.86 268.76 70.86 512S268.76 953.14 512 953.14 953.14 755.24 953.14 512 755.24 70.86 512 70.86z m0 831.16c-215.06 0-390.02-174.96-390.02-390.02S296.94 121.98 512 121.98 902.02 296.94 902.02 512 727.06 902.02 512 902.02z" p-id="28275" fill="#515151"></path><path d="M512 669.96c-16.03 0-29.85 5.81-41.07 17.26-11.14 11.36-16.79 25.19-16.79 41.1 0 15.98 5.69 29.77 16.89 40.96 11.21 11.21 24.99 16.9 40.96 16.9 15.96 0 29.83-5.77 41.21-17.15 11.38-11.38 17.15-25.16 17.15-40.96s-5.77-29.58-17.15-40.96c-11.37-11.38-25.24-17.15-41.2-17.15zM662.04 357.59c-7.15-31.74-23.47-59.05-48.65-81.33-28.83-25.5-62.94-38.43-101.38-38.43-42.13 0-78.66 15.17-108.58 45.09s-45.09 66.45-45.09 108.58v50.37h89.26V391.5c0-18.02 6.21-32.92 18.98-45.56 12.81-12.68 27.75-18.84 45.67-18.84 17.88 0 32.72 6.14 45.36 18.78 12.64 12.65 18.79 27.57 18.79 45.62v10.98c0 12.11-3 22.96-9.16 33.14-3.09 5.09-10.29 13.64-27.01 25.45-16.56 11.69-27.81 21.15-34.15 28.62-24.04 27-36.98 59.06-38.47 95.93v80.81h89.27v-77.49c0.26-12.78 4.02-24.05 11.8-34.9 2.89-4.33 10.02-12.1 27.61-24.51 17.31-12.21 29.8-23.52 38.14-34.51 20.73-27.02 31.24-58.15 31.24-92.54l-2.27-36.12-1.36-8.77z" p-id="28276" fill="#515151"></path></svg>