<?xml version="1.0" standalone="no"?><!DOCTYPE svg PUBLIC "-//W3C//DTD SVG 1.1//EN" "http://www.w3.org/Graphics/SVG/1.1/DTD/svg11.dtd"><svg t="1692002168111" class="icon" viewBox="0 0 1024 1024" version="1.1" xmlns="http://www.w3.org/2000/svg" p-id="24681" xmlns:xlink="http://www.w3.org/1999/xlink" width="24" height="24"><path d="M63.3 513.9c0 46.3 37.5 83.8 83.8 83.8s83.8-37.5 83.8-83.8-37.5-83.8-83.8-83.8-83.8 37.5-83.8 83.8z m0 0M428 513.9c0 46.3 37.5 83.8 83.8 83.8s83.8-37.5 83.8-83.8-37.5-83.8-83.8-83.8-83.8 37.5-83.8 83.8z m0 0M791.7 513.9c0 46.3 37.5 83.8 83.8 83.8s83.8-37.5 83.8-83.8-37.5-83.8-83.8-83.8-83.8 37.5-83.8 83.8z m0 0" p-id="24682"></path></svg>