<?xml version="1.0" standalone="no"?><!DOCTYPE svg PUBLIC "-//W3C//DTD SVG 1.1//EN" "http://www.w3.org/Graphics/SVG/1.1/DTD/svg11.dtd"><svg t="1699412157804" class="icon" viewBox="0 0 1024 1024" version="1.1" xmlns="http://www.w3.org/2000/svg" p-id="21598" xmlns:xlink="http://www.w3.org/1999/xlink" width="64" height="64"><path d="M875.712 229.248h-248.96a167.616 167.616 0 0 0-159.04-115.52H141.696a58.24 58.24 0 0 0-58.24 58.24v673.856c0 35.712 29.12 64.832 64.832 64.832h727.424c35.712 0 64.832-29.12 64.832-64.832V294.08c0-35.712-29.12-64.832-64.832-64.832z m-408-52.928c38.848 0 72.448 21.504 90.56 52.928h-412.16v-52.928h321.6z m410.24 669.44c0 1.28-1.024 2.304-2.24 2.304H148.288a2.24 2.24 0 0 1-2.24-2.24V291.84h729.664c1.28 0 2.24 1.024 2.24 2.24v551.68z" p-id="21599"></path><path d="M216.256 467.84a52.16 52.16 0 1 0 104.32 0 52.16 52.16 0 0 0-104.32 0zM781.056 436.48H412.288a31.296 31.296 0 1 0 0 62.592h368.704a31.296 31.296 0 1 0 0-62.592zM216.256 662.4a52.16 52.16 0 1 0 104.32 0 52.16 52.16 0 0 0-104.32 0zM781.056 631.232H412.288a31.296 31.296 0 1 0 0 62.592h368.704a31.296 31.296 0 1 0 0-62.592z" p-id="21600"></path></svg>