<?xml version="1.0" standalone="no"?><!DOCTYPE svg PUBLIC "-//W3C//DTD SVG 1.1//EN" "http://www.w3.org/Graphics/SVG/1.1/DTD/svg11.dtd"><svg t="1699350710480" class="icon" viewBox="0 0 1092 1024" version="1.1" xmlns="http://www.w3.org/2000/svg" p-id="1561" xmlns:xlink="http://www.w3.org/1999/xlink" width="68.25" height="64"><path d="M543.99999969 288.00000031c38.4 0 64.00000031 25.60000031 64.00000031 63.99999938v576c0 38.4-25.60000031 64.00000031-64.00000031 64.00000031s-64.00000031-25.60000031-63.99999938-64.00000031V351.99999969c0-38.4 25.60000031-64.00000031 63.99999938-63.99999938z" fill="#2c2c2c" p-id="1562"></path><path d="M588.8 294.39999969l268.8 268.8c25.60000031 25.60000031 25.60000031 64.00000031 0 89.60000062-25.60000031 25.60000031-64.00000031 25.60000031-89.59999969 0L543.99999969 428.79999969 320 652.80000031c-25.60000031 25.60000031-64.00000031 25.60000031-89.59999969 0s-25.60000031-64.00000031 0-89.60000062l268.8-268.8c25.60000031-25.60000031 64.00000031-25.60000031 89.59999969 0zM96.00000031 32h895.99999969c38.4 0 64.00000031 25.60000031 64.00000031 64.00000031s-25.60000031 64.00000031-64.00000031 63.99999938H96.00000031c-38.4 0-64.00000031-25.60000031-64.00000031-63.99999938s25.60000031-64.00000031 64.00000031-64.00000031z" fill="#2c2c2c" p-id="1563"></path></svg>