<?xml version="1.0" standalone="no"?><!DOCTYPE svg PUBLIC "-//W3C//DTD SVG 1.1//EN" "http://www.w3.org/Graphics/SVG/1.1/DTD/svg11.dtd"><svg t="1692841633892" class="icon" viewBox="0 0 1024 1024" version="1.1" xmlns="http://www.w3.org/2000/svg" p-id="13862" xmlns:xlink="http://www.w3.org/1999/xlink" width="24" height="24"><path d="M512 0a512 512 0 1 0 0 1024A512 512 0 1 0 512 0z m138.496 799.36c-30.08 10.368-53.76 18.368-71.68 24.128a204.8 204.8 0 0 1-62.272 8.512c-36.352 0-64.64-8.128-84.672-23.68a73.6 73.6 0 0 1-30.4-60.608c0-9.408 0.768-18.88 2.304-28.864 1.536-9.92 4.096-21.312 7.168-33.6l37.568-118.784c3.392-11.392 1.472-21.76 3.84-32.192 2.112-8.96 3.2-18.24 3.328-27.52 0-15.552 1.472-25.984-5.568-31.68-7.232-6.144-20.288-4.352-40.064-4.352-9.856 0-19.904 1.408-29.888 3.712-10.24 2.944-19.008 0.64-26.24 3.456l10.048-36.864c24.384-8.96 48-16.576 70.464-22.72a222.72 222.72 0 0 1 63.552-9.472c36.288 0 64 7.616 83.648 23.232 19.52 15.616 41.152 35.904 41.152 60.544 0 5.12-0.768 14.208-2.048 27.52-1.28 12.8-3.84 24.576-7.552 35.392l-49.28 118.4c-3.264 10.688-6.016 21.632-8.064 32.64-2.56 11.84-3.84 21.312-3.84 27.52 0 15.552 4.096 26.432 11.904 32.128 7.936 5.632 21.568 8.512 40.832 8.512 8.96 0 19.328-1.408 30.912-4.224 11.52-2.816 19.84-5.248 24.96-7.616l-10.112 36.48z m-6.656-480c-17.536 14.72-39.872 22.4-62.72 21.76a96 96 0 0 1-63.36-21.76 65.216 65.216 0 0 1-26.24-52.48c0-20.48 8.768-37.952 26.24-52.608 17.792-14.72 38.848-22.208 63.36-22.208 24.384 0 45.44 7.552 62.72 22.208 17.472 14.72 26.24 32.192 26.24 52.544 0 20.864-8.768 38.336-26.24 52.48z" fill="#1296db" p-id="13863"></path></svg>